<svg width="220" height="25" viewBox="0 0 220 25" fill="none" xmlns="http://www.w3.org/2000/svg">
<path d="M19.5 16.864C19.5 18.3147 19.1267 19.6053 18.38 20.736C17.6333 21.8453 16.5667 22.72 15.18 23.36C13.8147 24 12.1613 24.32 10.22 24.32C8.3 24.32 6.62533 24 5.196 23.36C3.788 22.6987 2.67867 21.7707 1.868 20.576C1.05733 19.3813 0.588 17.9733 0.46 16.352H5.388C5.452 17.632 5.87867 18.6453 6.668 19.392C7.47867 20.1387 8.63067 20.512 10.124 20.512C10.956 20.512 11.6813 20.3947 12.3 20.16C12.94 19.9253 13.4413 19.584 13.804 19.136C14.1667 18.688 14.348 18.1653 14.348 17.568C14.348 16.8427 14.0813 16.2667 13.548 15.84C13.0147 15.392 12.2573 15.072 11.276 14.88L7.5 14.144C6.62533 13.9947 5.81467 13.7493 5.068 13.408C4.32133 13.0667 3.67067 12.64 3.116 12.128C2.56133 11.616 2.124 10.9973 1.804 10.272C1.484 9.54667 1.324 8.71467 1.324 7.776C1.324 6.41067 1.68667 5.19467 2.412 4.128C3.15867 3.06133 4.172 2.22933 5.452 1.632C6.75333 1.03466 8.236 0.735998 9.9 0.735998C11.628 0.735998 13.164 1.056 14.508 1.696C15.852 2.336 16.94 3.24266 17.772 4.416C18.604 5.568 19.0627 6.944 19.148 8.544H14.22C14.1773 7.73333 13.964 7.02933 13.58 6.432C13.2173 5.81333 12.7267 5.344 12.108 5.024C11.4893 4.68267 10.7747 4.512 9.964 4.512C9.17467 4.512 8.50267 4.65067 7.948 4.928C7.41467 5.184 6.99867 5.536 6.7 5.984C6.40133 6.41067 6.252 6.90133 6.252 7.456C6.252 7.968 6.39067 8.39467 6.668 8.736C6.96667 9.07733 7.35067 9.35467 7.82 9.568C8.28933 9.76 8.80133 9.90933 9.356 10.016L13.292 10.816C15.3187 11.2213 16.8547 11.9147 17.9 12.896C18.9667 13.856 19.5 15.1787 19.5 16.864ZM33.5188 24L27.5028 8.736V24H23.0868V1.024H28.9108L35.5668 18.048L42.2548 1.024H48.0788V24H43.6628V8.608L37.5828 24H33.5188ZM56.9023 15.2H67.0783L68.3583 19.072H55.4943L56.9023 15.2ZM68.1343 24L61.9903 6.336L55.7183 24H50.8223L59.4623 1.024H64.7743L73.3503 24H68.1343ZM81.0133 24H76.1493V1.024H85.1413C88.0426 1.024 90.2933 1.67467 91.8933 2.976C93.4933 4.256 94.2933 6.09067 94.2933 8.48C94.2933 10.016 93.8346 11.3813 92.9173 12.576C92.0213 13.7493 90.7519 14.6027 89.1093 15.136L95.0293 24H89.2373L84.0533 15.872H81.0133V24ZM81.0133 5.056V11.872H84.9173C86.3893 11.872 87.5093 11.5947 88.2773 11.04C89.0453 10.464 89.4293 9.61067 89.4293 8.48C89.4293 7.328 89.0453 6.47467 88.2773 5.92C87.5093 5.344 86.3893 5.056 84.9173 5.056H81.0133ZM107.953 24H103.089V5.408H95.8565V1.024H115.217V5.408H107.953V24ZM128.646 24.48C126.982 24.48 125.446 24.1707 124.038 23.552C122.63 22.912 121.403 22.048 120.358 20.96C119.334 19.872 118.534 18.6027 117.958 17.152C117.403 15.68 117.126 14.1227 117.126 12.48C117.126 10.8373 117.403 9.29067 117.958 7.84C118.534 6.38933 119.334 5.12 120.358 4.032C121.403 2.944 122.63 2.09067 124.038 1.472C125.446 0.853332 126.982 0.543999 128.646 0.543999C130.31 0.543999 131.846 0.853332 133.254 1.472C134.662 2.09067 135.878 2.944 136.902 4.032C137.947 5.12 138.758 6.38933 139.334 7.84C139.91 9.29067 140.198 10.8373 140.198 12.48C140.198 14.1227 139.91 15.68 139.334 17.152C138.758 18.6027 137.947 19.872 136.902 20.96C135.878 22.048 134.662 22.912 133.254 23.552C131.846 24.1707 130.31 24.48 128.646 24.48ZM128.646 23.104C130.118 23.104 131.451 22.8267 132.646 22.272C133.862 21.7173 134.907 20.96 135.782 20C136.678 19.04 137.361 17.92 137.83 16.64C138.321 15.3387 138.566 13.952 138.566 12.48C138.566 11.008 138.321 9.632 137.83 8.352C137.361 7.05067 136.678 5.93067 135.782 4.992C134.907 4.032 133.862 3.28533 132.646 2.752C131.451 2.19733 130.118 1.92 128.646 1.92C127.195 1.92 125.862 2.19733 124.646 2.752C123.451 3.28533 122.406 4.032 121.51 4.992C120.635 5.93067 119.953 7.05067 119.462 8.352C118.971 9.632 118.726 11.008 118.726 12.48C118.726 13.952 118.971 15.3387 119.462 16.64C119.953 17.92 120.635 19.04 121.51 20C122.406 20.96 123.451 21.7173 124.646 22.272C125.862 22.8267 127.195 23.104 128.646 23.104ZM145.787 24H144.219V1.024H152.123C154.406 1.024 156.219 1.61067 157.563 2.784C158.907 3.95733 159.579 5.632 159.579 7.808C159.579 9.57867 159.025 11.072 157.915 12.288C156.827 13.504 155.345 14.2187 153.467 14.432L160.155 24H158.299L151.771 14.56H145.787V24ZM145.787 2.336V13.248H151.931C153.787 13.248 155.259 12.7787 156.347 11.84C157.457 10.9013 158.011 9.55733 158.011 7.808C158.011 6.05867 157.457 4.71467 156.347 3.776C155.259 2.816 153.787 2.336 151.931 2.336H145.787ZM170.046 24H164.094V1.024H170.046C172.521 1.024 174.601 1.51466 176.286 2.496C177.972 3.456 179.241 4.78933 180.094 6.496C180.948 8.20267 181.374 10.1867 181.374 12.448C181.374 14.6453 180.937 16.6187 180.062 18.368C179.188 20.096 177.897 21.472 176.19 22.496C174.505 23.4987 172.457 24 170.046 24ZM165.662 2.368V22.656H170.046C172.137 22.656 173.908 22.2293 175.358 21.376C176.809 20.5013 177.908 19.296 178.654 17.76C179.422 16.2027 179.806 14.432 179.806 12.448C179.806 10.4213 179.433 8.65067 178.686 7.136C177.94 5.62133 176.841 4.448 175.39 3.616C173.94 2.784 172.158 2.368 170.046 2.368H165.662ZM198.654 22.656V24H185.438V1.024H198.43V2.368H187.006V11.456H197.47V12.8H187.006V22.656H198.654ZM204.912 24H203.344V1.024H211.248C213.531 1.024 215.344 1.61067 216.688 2.784C218.032 3.95733 218.704 5.632 218.704 7.808C218.704 9.57867 218.15 11.072 217.04 12.288C215.952 13.504 214.47 14.2187 212.592 14.432L219.28 24H217.424L210.896 14.56H204.912V24ZM204.912 2.336V13.248H211.056C212.912 13.248 214.384 12.7787 215.472 11.84C216.582 10.9013 217.136 9.55733 217.136 7.808C217.136 6.05867 216.582 4.71467 215.472 3.776C214.384 2.816 212.912 2.336 211.056 2.336H204.912Z" fill="white"/>
</svg>
