<svg xmlns="http://www.w3.org/2000/svg" width="143" height="127" fill="none"><path fill="#8A1114" d="M71.395 127c39.148 0 70.883-1.853 70.883-4.138s-31.735-4.139-70.883-4.139S.513 120.576.513 122.862c0 2.285 31.735 4.138 70.882 4.138" opacity=".4"/><path fill="#263238" d="M50.7 14.434c-2.848 2.347-5.63 6.13-4 10.236s12.064 4.519 14.258 2.83c2.851-2.194.333-11.962-1.89-12.02-.168-3.623-5.988-3.01-8.368-1.046"/><path fill="#FFB573" d="M46.71 53.972s1.145 20.816 2.407 32.087c.127 10.583 2.559 34.492 2.559 34.492h2.672c.45-11.863 3.75-22.94 1.557-33.403 5.118-20.546 1.612-33.162 1.612-33.162z"/><path fill="#FFB573" d="M49.621 53.986s5.502 23.09 7.008 32.924c1.587 10.332 3.949 30.38 3.839 33.634h2.307s3.875-20.283.288-33.268c2.958-29.247-4.339-33.268-4.339-33.268zM36.428 27.28c-.172-1.246-2.46-1.352-2.46-1.352l-1.098-.552a.87.87 0 0 0-1.18.263l-.366.607a1.1 1.1 0 0 0 .406 1.367l.332.241c.567.405 1.236.64 1.93.677l1.013.055a1.9 1.9 0 0 0 .658-.08 1.1 1.1 0 0 0 .754-1.226z"/><path fill="#FFB573" d="M48.48 34.574a6 6 0 0 1-.314.303l-.289.256c-.19.161-.387.31-.58.46a18 18 0 0 1-1.211.82c-.829.499-1.7.924-2.603 1.272a16.1 16.1 0 0 1-5.637 1.097h-.168a2.2 2.2 0 0 1-.764-.158 2.4 2.4 0 0 1-.732-.475 3.2 3.2 0 0 1-.661-.936 7 7 0 0 1-.508-1.546 18 18 0 0 1-.366-2.786 36 36 0 0 1 .11-5.381.82.82 0 0 1 1.627-.022v.022c.197 1.703.424 3.433.73 5.089q.204 1.204.56 2.372.142.48.388.914c.065.106.131.157.102.12a.45.45 0 0 0-.176-.116.7.7 0 0 0-.186-.055h-.099a16 16 0 0 0 2.333-.387q1.141-.286 2.23-.732a14.6 14.6 0 0 0 2.08-1.096 14 14 0 0 0 1.411-.998l.212-.176.16-.143.096-.084a1.642 1.642 0 0 1 2.252 2.388z"/><path fill="#E0E0E0" d="M50.28 30.516C47.386 30.033 44.352 32 42.78 33.6c-.812 2.442 1.788 5.41 1.788 5.41s3.703-2.273 5.037-3.827 2.34-4.39.673-4.668"/><path fill="#263238" d="M59.236 53.708s4.08 2.896 4.848 12.521c.307 3.791.859 18.916 2.021 25.423-4.186 2.99-16.718 2.581-18.681.834.556-13.161-4.475-30.618-.826-38.646 6.04-.742 12.638-.132 12.638-.132"/><path fill="#000" d="M55.098 81.313c.055-5.53-.76-13.142-3.236-17.654.845 5.63 3.236 17.654 3.236 17.654" opacity=".2"/><path fill="#E0E0E0" d="M44.682 34.976c0 3.133-2.497 4.778.329 7.19.168 2.706.365 7.55 1.195 11.963.86 1.195 7.14 1.096 13.666-.318-.852-3.784-.538-9.948 1.696-18.378a3.505 3.505 0 0 0-2.793-4.318 33 33 0 0 0-1.689-.255c-2.04-.301-4.1-.455-6.164-.461-.665 0-1.356.044-2.014.088a4.504 4.504 0 0 0-4.226 4.489"/><path fill="#8A1114" d="m58.014 40.416-7.66 1.734a.54.54 0 0 0-.407.647l2.48 10.95a.54.54 0 0 0 .647.408l7.658-1.734a.54.54 0 0 0 .409-.648l-2.48-10.95a.54.54 0 0 0-.647-.407M51.68 34.439s-1.24 1.484-2.264 1.827l-.117.732a5.55 5.55 0 0 0 3.375-1.74zM48.313 33.543s-.052 1.93.482 2.873l-.398.63a5.56 5.56 0 0 1-1.382-3.54z"/><path fill="#FFB573" d="M56.834 23.906c-.49 1.945-1.064 5.531.252 6.946 0 0-4.902 1.338-8.098 5.725-1.462-4.61 1.949-6.185 1.949-6.185 2.234-.366 2.263-1.997 1.956-3.561z"/><path fill="#000" d="m55.23 25.102-2.333 1.736a6.4 6.4 0 0 1 .132 1.097c.848-.059 2.054-.896 2.193-1.77.064-.351.067-.711.007-1.063" opacity=".2"/><path fill="#FFB573" d="M59.108 20.44c-.94 3.152-1.268 4.508-3.246 5.747-2.976 1.861-6.58-.055-6.603-3.44 0-3.049 1.525-7.677 4.914-8.181 3.389-.505 5.89 2.72 4.935 5.874"/><path fill="#263238" d="M56.651 15.838c-.888 3.038-.128 6.215 1.686 6.58 2.519-.94 2.394-3.736 1.75-5.016-.643-1.28-2.924-3.315-3.436-1.564"/><path fill="#263238" d="M58.03 21.296c-1.4.464-1.671 1.404-1.671 1.404s.961-.68 1.883-.552a2 2 0 0 1-.212-.852M54.53 20.144c-.062.26-.248.435-.42.395s-.263-.292-.2-.552c.061-.26.248-.439.42-.395s.248.293.2.552M51.288 19.373c-.062.26-.249.435-.42.391-.172-.044-.264-.289-.202-.552.063-.263.25-.435.42-.391.173.044.268.289.202.552"/><path fill="#263238" d="m51.168 18.854-.589-.34s.209.57.589.34"/><path fill="#ED893E" d="M51.903 19.797a7 7 0 0 1-1.324 1.426 1.2 1.2 0 0 0 .896.413z"/><path fill="#FFB573" d="M59.126 23.603a2.08 2.08 0 0 1-1.568.73c-.764-.021-.896-.898-.475-1.619.365-.65 1.228-1.422 1.893-1.053.666.37.67 1.35.15 1.942"/><path fill="#263238" d="M55.141 19.026a.17.17 0 0 1-.084-.096 1.31 1.31 0 0 0-.79-.84.16.16 0 0 1-.087-.25.15.15 0 0 1 .103-.06q.031-.003.061.006a1.62 1.62 0 0 1 1.013 1.05.15.15 0 0 1-.044.168.2.2 0 0 1-.055.029.16.16 0 0 1-.117-.007M50.11 17.816a.16.16 0 0 1-.112-.04.16.16 0 0 1 0-.224 1.55 1.55 0 0 1 1.33-.526.165.165 0 0 1 .136.183.157.157 0 0 1-.18.131 1.22 1.22 0 0 0-1.049.424.16.16 0 0 1-.124.052M54.403 19.629l-.588-.344s.208.574.588.344"/><path fill="#FFB573" d="m54.213 45.585-2.925-.567.33 3.36s2.193-.095 3.443-1.097l.117-.438c-.135-.728-.3-.995-.965-1.258"/><path fill="#FFB573" d="m49.53 46.452.34 1.422a.84.84 0 0 0 .943.632l.819-.128-.33-3.36-1.246.454a.837.837 0 0 0-.526.98M60.753 33.572a44 44 0 0 1 2.322 5.264c.329.903.64 1.828.888 2.775a17 17 0 0 1 .548 2.998q.032.401.037.819v.256a2.071 2.071 0 0 1-.307.888c-.17.263-.39.488-.65.662a3.4 3.4 0 0 1-1.04.464q-.42.116-.85.18c-.997.125-2.003.163-3.006.113a39 39 0 0 1-5.663-.68.815.815 0 0 1 .14-1.62c1.827-.033 3.677-.08 5.457-.216q1.281-.088 2.534-.365.255-.059.5-.154a.6.6 0 0 0 .22-.117.46.46 0 0 0-.168.172.9.9 0 0 0-.14.399 1 1 0 0 0 0 .073c0-.187-.032-.366-.061-.57a24.4 24.4 0 0 0-1.488-4.94 74 74 0 0 0-2.194-4.91v-.029a1.645 1.645 0 0 1 2.925-1.484z"/><path fill="#E0E0E0" d="M58.965 31.229c2.095.387 3.027 2.27 4.548 6.028-.464 2.53-4.182 3.86-4.182 3.86s-2.135-3.783-2.56-5.79c-.423-2.007.081-4.49 2.194-4.098"/><path fill="#263238" d="M54.538 120.58a.23.23 0 0 0-.241-.149l-2.479-.037a1.36 1.36 0 0 0-.731.157 9.3 9.3 0 0 1-3.736 1.335c-.527.08-.289.968.954.983 2.05.022 2.424-.132 4.175-.113 1.495.018.782.084 1.97.113.285 0 .52-.179.483-.366zM63.089 120.58a.23.23 0 0 0-.241-.149l-2.022-.037a1.34 1.34 0 0 0-.731.157c-.731.508-.629 1.097-2.296 1.335-.526.08-.267.968.976.983 2.051.022 1.927-.113 2.76-.113.834 0 .322.084 1.514.113.285 0 .515-.179.471-.366z"/><path fill="#FAFAFA" d="M50.33 35.002c1.039.043 2.944.895 3.554 1.805.863-.895 4.233-2.975 4.292-5.794a2.92 2.92 0 0 0-1.495-.768s-4.497 2.175-6.35 4.756M48.649 34.855s-.282-2.277 2.474-4.49c-.277-.226-1.367.03-1.367.03s-3.22 1.386-3.126 4.972a2.77 2.77 0 0 1 2.018-.512"/><path fill="#8A1114" d="M48.24 35.82c-.4.187-.557 1.485 0 1.788.555.303.5-.936.822-1.36s-.125-.753-.823-.428"/><path fill="#8A1114" d="M48.73 36.325c-.286.365.083 1.608.698 1.605.614-.004.084-1.097.204-1.638s-.416-.61-.903.033"/><path fill="#8A1114" d="M48.813 37.25c-.683-1.057-.73 4.511.925 6.705-.11-2.161 1.05-5.225-.925-6.705"/><path fill="#8A1114" d="M48.75 37.202c-.303-1.075-1.827 3.634-.983 5.934.48-1.861 2.267-4.157.984-5.934"/><path fill="#263238" d="M53.847 22.641q.24-.104.457-.248a.09.09 0 0 0 .02-.096.1.1 0 0 0-.02-.029.1.1 0 0 0-.132-.022 2.63 2.63 0 0 1-2.244.326.1.1 0 0 0-.07-.002.1.1 0 0 0-.05.05.09.09 0 0 0 .054.116c.65.214 1.358.18 1.985-.095"/><path fill="#8A1114" d="M43.238 25.219H24.561v.606h18.677z"/><path fill="#8A1114" d="M42.792 25.825H25.006l.783.425h16.22z"/><path fill="#000" d="M42.792 25.825H25.006l.783.425h16.22z" opacity=".2"/><path fill="#263238" d="M30.545 8.961a.417.417 0 0 1-.413-.413V7.162a.417.417 0 0 1 .413-.413.417.417 0 0 1 .413.414v1.385a.416.416 0 0 1-.413.413"/><path fill="#263238" d="M31.21 7.078v-.182a.32.32 0 0 0-.321-.322H30.2a.32.32 0 0 0-.321.322v.182c0 .178.144.322.321.322h.688a.32.32 0 0 0 .321-.322"/><path fill="#8A1114" d="M31.207 11.97V8.018a.164.164 0 0 0-.161-.165h-1.002a.165.165 0 0 0-.16.165v3.952a2.1 2.1 0 0 1-.706 1.572 2.13 2.13 0 0 0-.706 1.576v10.137h4.142V15.118a2.12 2.12 0 0 0-.705-1.576 2.1 2.1 0 0 1-.702-1.572"/><path fill="#E0E0E0" d="M32.614 16.317H29.88v6.555h2.734z"/><path fill="#8A1114" d="M36.497 25.219h-.494q.248.015.494 0M39.476 25.219h-.497q.25.015.497 0"/><path fill="#8A1114" d="M35.835 17.487v1.663c0 1.323.753 2.424 1.707 2.559v2.925c0 .45-.439.577-.779.607h1.95c-.34-.03-.78-.158-.78-.607v-2.925c.955-.132 1.708-1.232 1.708-2.56v-1.663z" opacity=".2"/><path fill="#263238" d="M58.487 15.922c-1.463.621-6.362.811-8.28.395 1.984-2.804 6.444-3.627 8.28-.395M63.096 25.939a.1.1 0 0 1-.073-.037c-.047-.066-1.126-1.652-1.148-5.9 0-1.773-.544-3.2-1.462-3.92a1.98 1.98 0 0 0-1.737-.394.1.1 0 0 1-.069-.012.1.1 0 0 1-.04-.058.1.1 0 0 1 .012-.069.1.1 0 0 1 .057-.04 2.2 2.2 0 0 1 1.886.427c.97.757 1.529 2.238 1.54 4.062.022 4.182 1.096 5.784 1.096 5.798a.09.09 0 0 1-.022.128.1.1 0 0 1-.04.015M89.404 4.417c1.02 1.397 1.016 3.572.669 4.753-1.828-.83-1.543-3.214-1.543-3.214z"/><path fill="#E0E0E0" d="m94.87 21.702 1.052 1.158 1.097 1.178c.731.778 1.462 1.539 2.215 2.27.366.366.731.731 1.123 1.053.391.322.731.665 1.115.961.383.296.731.56 1.071.786q.385.259.804.454l-.559-.088a.73.73 0 0 0-.476.106s.088 0 .213-.073q.51-.313.939-.731a23 23 0 0 0 2.095-2.278 64 64 0 0 0 2.054-2.632 276 276 0 0 0 2.018-2.738l.033-.04a1.65 1.65 0 0 1 2.896 1.462 36 36 0 0 1-1.283 3.403 41 41 0 0 1-1.609 3.29 22.6 22.6 0 0 1-2.15 3.243 11 11 0 0 1-1.623 1.638 6.2 6.2 0 0 1-1.29.804 4.8 4.8 0 0 1-2.168.446 2 2 0 0 1-.41-.055l-.153-.032a10.2 10.2 0 0 1-2.307-.86 16 16 0 0 1-1.773-1.049 28 28 0 0 1-2.976-2.306 43 43 0 0 1-4.997-5.188 3.29 3.29 0 0 1 4.972-4.256z"/><path fill="#FF8B7B" d="m111.269 23.102 3.258.157-1.057-4.387s-3.031.223-3.517 1.78a.8.8 0 0 0 .029.527l.6 1.437a.79.79 0 0 0 .687.486"/><path fill="#FF8B7B" d="m117.433 20.656-.629-1.462a1.31 1.31 0 0 0-1.51-.753l-1.828.45 1.057 4.386 2.193-.884a1.3 1.3 0 0 0 .727-.716 1.3 1.3 0 0 0-.01-1.02"/><path fill="#263238" d="M87.166 83.854c-3.458-15.212-5.597-33.553-5.597-33.553l14.181-.227s-.197 24.717-.168 35.07c.037 10.767.782 34.46.782 34.46h-4.303s-5.553-22.443-4.895-35.75"/><path fill="#000" d="m86.063 62.866-2.245 3.327c.669 4.153 1.462 8.726 2.387 13.208.388-6.887.322-14.89-.142-16.535"/><path fill="#263238" d="M102.104 121.714s-5.926-1.397-6.372-2.336h-3.29l.022 3.484h2.032l.311-.322.516.322c1.645 0 6.017-.066 7.052-.435a.774.774 0 0 0-.271-.713M73.976 83.426c1.642-15.3 1.59-25.52 3.59-33.06l12.912-.193s-5.377 24.267-7.874 34.365c-2.497 10.097-6.77 35.059-6.77 35.059h-3.986s-1.254-24.34 2.128-36.17"/><path fill="#E0E0E0" d="M76.543 53.346c-.285 1.828-1.302 12.642-2.355 16.58 8.61 3.82 21.77 2.317 22.177-.161-.121-4.592-.366-16.419-.366-16.419z"/><path fill="#000" d="M77.022 55.353a13 13 0 0 0 2.16 2.65s-1.857-.332-2.16-2.65M94.328 57.902c.494-.737.894-1.531 1.192-2.366 0 0 .084 1.868-1.192 2.365M77.102 56.732c.198.732.492 1.435.874 2.09a1.93 1.93 0 0 1-.874-2.09" opacity=".1"/><path fill="#263238" d="M79.548 121.714s-3.696-1.397-4.12-2.336h-3.29l-.066 3.484h2.694l.318-.322.508.322c1.645 0 3.163-.066 4.208-.435a.75.75 0 0 0-.252-.713M77.09 19.845c4.563-.567 11.078-.512 15.447.24a5.29 5.29 0 0 1 4.291 4.45c.918 6.599.129 18.13-.456 29.736-9.98 3.415-20.51-.047-20.51-.047-.365-2.34.454-10.013 1.002-14.108-.822-4.23-2.559-9.074-3.722-14.693a4.6 4.6 0 0 1 3.949-5.578"/><path fill="#fff" d="M77.09 19.845c4.563-.567 11.078-.512 15.447.24a5.29 5.29 0 0 1 4.291 4.45c.918 6.599.129 18.13-.456 29.736-9.98 3.415-20.51-.047-20.51-.047-.365-2.34.454-10.013 1.002-14.108-.822-4.23-2.559-9.074-3.722-14.693a4.6 4.6 0 0 1 3.949-5.578" opacity=".1"/><path fill="#FF8B7B" d="m81.606 11.133 5.191 4.259c-.672 1.787-.884 3.656 2.048 4.361.73.969-.366 2.669-1.667 3.33-3.079-.701-4.852-1.528-6.047-3.17.376-1.286.976-6.137.475-8.78"/><path fill="#000" d="m83.77 12.91 3.027 2.478a6.7 6.7 0 0 0-.365 1.28c-1.174.084-2.804-1.097-2.877-2.172a4.4 4.4 0 0 1 .215-1.587" opacity=".2"/><path fill="#FF8B7B" d="M80.86 8.23c.476 3.257.585 5.188 2.38 6.716 2.702 2.3 6.62.427 7.133-2.925.457-3.009-.395-7.83-3.71-8.84A4.537 4.537 0 0 0 80.86 8.23"/><path fill="#263238" d="M80.831 9.733a2.56 2.56 0 0 0 2.694.69c-.782-.793-.022-3.696-.804-4.876 1.514.3 7.407 1.155 7.97-.889C91.3 2.465 88.863.714 87.496.55c.402.914.365 1.576-1.134 1.28S78.685.107 79.37 3.002c-1.99 0-2.124 2.896-.67 4.281a15 15 0 0 1 2.132 2.45"/><path fill="#263238" d="M79.734 2.863c-1.191-.296-.819-1.393-.552-1.506-1.115.27-1.52 1.367-.175 1.872 1.345.504.727-.366.727-.366"/><path fill="#FF8B7B" d="M79.942 10.23a2.83 2.83 0 0 0 1.397 1.67c.896.457 1.546-.296 1.462-1.239-.07-.852-.614-2.113-1.594-2.193a1.29 1.29 0 0 0-1.265 1.762"/><path fill="#263238" d="M85.434 8.347c.022.267.183.472.365.457.183-.015.3-.249.278-.512s-.183-.471-.365-.457c-.183.015-.3.245-.278.512M88.621 8.27c.022.267.183.472.366.454.183-.019.296-.245.274-.512s-.183-.468-.365-.454c-.183.015-.297.245-.275.512"/><path fill="#FF5652" d="M87.974 8.628a9.4 9.4 0 0 0 1.462 2.165c-.435.482-1.254.365-1.254.365z"/><path fill="#263238" d="M84.94 7.499a.14.14 0 0 1-.077 0 .154.154 0 0 1-.087-.205 1.58 1.58 0 0 1 1.064-.972.158.158 0 0 1 .062.31 1.25 1.25 0 0 0-.838.78.16.16 0 0 1-.124.087M90.471 7.075a.15.15 0 0 1-.131-.073 1.24 1.24 0 0 0-.947-.618.157.157 0 0 1-.154-.161.16.16 0 0 1 .165-.154 1.56 1.56 0 0 1 1.206.768.16.16 0 0 1-.05.216.13.13 0 0 1-.089.022"/><path fill="#E0E0E0" d="M81.13 19.914s5.327 8.094 7.353 13.804c1.996-6.7 2.226-12.064.365-13.965-.6.757-3.012 1.78-7.717.16M79.314 25.895l-.516 1.462-.512 1.521a75 75 0 0 0-.94 3.027q-.216.752-.39 1.488c-.117.49-.23.976-.311 1.44-.08.465-.143.914-.183 1.316a7 7 0 0 0 0 .925l-.19-.533c-.154-.29-.31-.366-.318-.366-.007 0 .051.073.165.154q.512.301 1.078.482 1.46.49 2.972.782c1.071.212 2.175.366 3.29.549s2.263.31 3.367.468h.052a1.648 1.648 0 0 1 .084 3.25 36 36 0 0 1-3.601.497 38 38 0 0 1-3.656.157 23 23 0 0 1-3.875-.34 11.2 11.2 0 0 1-2.194-.647 6 6 0 0 1-1.323-.753 4.8 4.8 0 0 1-1.426-1.689 2 2 0 0 1-.15-.388l-.04-.15a10.2 10.2 0 0 1-.347-2.438q-.027-1.031.077-2.058a28 28 0 0 1 .603-3.71c.26-1.193.588-2.344.943-3.481a39.045 39.045 0 0 1 1.232-3.389 3.29 3.29 0 0 1 6.145 2.343z"/><path fill="#FF8B7B" d="m87.346 39.081 3.231.402-1.784 4.135s-2.95-.73-3.162-2.354a.77.77 0 0 1 .12-.512l.834-1.312a.79.79 0 0 1 .76-.359M93.001 42.543l-.87 1.346a1.305 1.305 0 0 1-1.616.482l-1.722-.753 1.784-4.135 2.015 1.247a1.3 1.3 0 0 1 .41 1.813"/><path fill="#FAFAFA" d="M81.39 18.656a3.04 3.04 0 0 0-1.766.95 10.6 10.6 0 0 0 5.85 3.913c-.168-.56.336-2.194.892-2.779-2.044-.303-4.976-2.084-4.976-2.084"/><path fill="#FAFAFA" d="M87.006 18.857a5 5 0 0 1 1.934.794s2.047 2.285-.366 3.575c.165-.56-1.097-2.05-2.226-2.486 2.04-.303.658-1.883.658-1.883"/><path fill="#8A1114" d="M86.574 22.042c-1.616-.867-3.615-1.806-3.06-.29.556 1.518-.179 2.044.545 2.56.724.515 2.194-.9 2.68-1.097s-.165-1.173-.165-1.173M87.719 22.03c1.232-.83 2.774-1.729 2.5-.248-.274 1.48.406 1.996-.131 2.497-.538.5-1.92-.9-2.358-1.097-.44-.197-.011-1.151-.011-1.151"/><path fill="#8A1114" d="M86.355 21.925c.366-.22 1.258-.498 1.7.098s.3 1.594-.31 1.715a1.23 1.23 0 0 1-1.193-.42 1.096 1.096 0 0 0-.197-1.393"/><path fill="#000" d="m76.056 119.714-4.434.124-.234-2.511 5.15.307zM96.522 119.707l-4.79.131-.53-2.175 5.35-.519z"/><path fill="#fff" d="M86.084 38.23a30 30 0 0 0-6.88-1.189c-.497.03-.687 11.264-.647 15.86 0 .62 7.15.496 8.979.215.102-1.283.124-10.65.6-13.578a1.04 1.04 0 0 0-.622-1.118 2.9 2.9 0 0 0-1.43-.19"/><path fill="#8A1114" d="M123.516 20.247h-20.297v.577h20.297zM123.092 20.824h-19.449l.746.406h17.961z"/><path fill="#000" d="M123.092 20.824h-19.449l.746.406h17.961z" opacity=".2"/><path fill="#8A1114" d="M114.205 12.087a.84.84 0 0 1-.999.825.837.837 0 0 1 .161-1.659.84.84 0 0 1 .592.243.83.83 0 0 1 .246.59M122.142 17.567a9.2 9.2 0 0 0-3.079-4.416l.227-.29a9.6 9.6 0 0 1 3.203 4.596zM117.795 12.31a9 9 0 0 0-1.276-.581l.124-.344a9.6 9.6 0 0 1 1.327.618z"/><path fill="#8A1114" d="M113.368 12.087a8.303 8.303 0 0 0-8.303 8.302h16.605a8.3 8.3 0 0 0-8.302-8.302"/><path fill="#fff" d="M106.21 19.647h2.146a.32.32 0 0 0 .31-.263c.432-2.274 1.788-4.255 3.945-5.977a.286.286 0 0 0 .085-.338.29.29 0 0 0-.301-.174 7.58 7.58 0 0 0-6.503 6.394.32.32 0 0 0 .077.251.32.32 0 0 0 .241.107" opacity=".3"/><path fill="#263238" d="M86.954 12.109q.258.011.512-.026a.09.09 0 0 0 .07-.102.1.1 0 0 0-.11-.077 2.56 2.56 0 0 1-2.128-.665.1.1 0 0 0-.064-.028.1.1 0 0 0-.064.028.095.095 0 0 0 0 .128 2.72 2.72 0 0 0 1.784.742"/></svg>